<svg width="18" height="16" viewBox="0 0 18 16" fill="none" xmlns="http://www.w3.org/2000/svg">
<path d="M12.7822 0.3125H12.7832C13.363 0.312706 13.937 0.428071 14.4717 0.652344C15.0064 0.876662 15.491 1.20554 15.8975 1.61914C16.7264 2.46296 17.1904 3.59841 17.1904 4.78125C17.1904 5.96409 16.7264 7.09954 15.8975 7.94336L8.75098 15.1797L1.60547 7.94336C0.776718 7.09956 0.3125 5.96398 0.3125 4.78125C0.3125 3.59852 0.776717 2.46294 1.60547 1.61914C2.01204 1.20576 2.49747 0.877427 3.03223 0.65332C3.56689 0.429302 4.141 0.313477 4.7207 0.313477C5.30043 0.313511 5.87451 0.429248 6.40918 0.65332C6.94384 0.87741 7.42844 1.20584 7.83496 1.61914L7.83594 1.62012L8.5293 2.32031L8.75195 2.54395L8.97363 2.32031L9.66699 1.62012L9.66895 1.61914C10.0749 1.20511 10.559 0.875678 11.0938 0.651367C11.6284 0.427112 12.2025 0.312068 12.7822 0.3125ZM12.7832 0.9375C12.2841 0.936808 11.7897 1.03682 11.3301 1.23145C10.8712 1.4258 10.4558 1.71021 10.1094 2.06836L8.75195 3.45215L7.3877 2.05664L7.38672 2.05566C7.03891 1.70158 6.6237 1.42054 6.16602 1.22852C5.7083 1.03652 5.21706 0.937535 4.7207 0.9375C4.22417 0.9375 3.73228 1.03642 3.27441 1.22852C2.81669 1.42058 2.40153 1.70151 2.05371 2.05566C1.33971 2.7806 0.939453 3.75787 0.939453 4.77539C0.939555 5.79272 1.33986 6.76931 2.05371 7.49414H2.05469L8.5293 14.0508L8.75195 14.2764L8.97363 14.0508L15.4492 7.49414C16.1632 6.76928 16.5634 5.79283 16.5635 4.77539C16.5635 3.7578 16.1633 2.78062 15.4492 2.05566C15.1017 1.70141 14.6871 1.41953 14.2295 1.22754C13.7717 1.03551 13.2797 0.937151 12.7832 0.9375Z" fill="#BDBDBD" stroke="#252B42" stroke-width="0.625"/>
</svg>
