<svg width="24" height="45" viewBox="0 0 24 45" fill="none" xmlns="http://www.w3.org/2000/svg">
<path fill-rule="evenodd" clip-rule="evenodd" d="M23.3689 43.5711C23.2105 43.729 23.0224 43.8542 22.8153 43.9396C22.6082 44.0251 22.3862 44.069 22.162 44.069C21.9378 44.069 21.7158 44.0251 21.5087 43.9396C21.3017 43.8542 21.1136 43.729 20.9552 43.5711L0.500675 23.234C0.341937 23.0765 0.215995 22.8895 0.130064 22.6836C0.0441329 22.4777 -9.91826e-05 22.257 -9.91631e-05 22.0341C-9.91436e-05 21.8112 0.044133 21.5904 0.130064 21.3845C0.215995 21.1786 0.341937 20.9916 0.500675 20.8342L20.9552 0.497028C21.2753 0.178797 21.7094 1.50699e-05 22.162 1.51095e-05C22.6147 1.51491e-05 23.0488 0.178797 23.3689 0.497028C23.6889 0.81526 23.8687 1.24687 23.8687 1.69692C23.8687 2.14697 23.6889 2.57858 23.3689 2.89681L4.11772 22.0341L23.3689 41.1713C23.5276 41.3288 23.6535 41.5158 23.7395 41.7217C23.8254 41.9276 23.8696 42.1483 23.8696 42.3712C23.8696 42.5942 23.8254 42.8149 23.7395 43.0208C23.6535 43.2267 23.5276 43.4137 23.3689 43.5711Z" fill="white"/>
</svg>
